<svg viewBox="0 0 1280 500" xmlns="http://www.w3.org/2000/svg" role="img" aria-label="The window near capacity: tokens crowd deep into the rigid band and the newest position's attention is a wide, faint fan spread thin across the whole crowd">
  <defs>
    <marker id="arrowGrey" markerWidth="10" markerHeight="9" refX="9" refY="4.5" orient="auto" markerUnits="userSpaceOnUse">
      <path d="M0,0 L10,4.5 L0,9 Z" fill="#9aa1ad"/>
    </marker>
  </defs>
  <g font-family="system-ui, -apple-system, 'Segoe UI', sans-serif">
  <text x="70" y="96" font-size="22" fill="#9aa1ad" font-family="ui-monospace, 'SF Mono', Menlo, monospace">context window</text>
  <rect x="70" y="116" width="1140" height="264" rx="24" fill="#2a2c31" opacity="0.5" stroke="#3a3d44" stroke-width="2.5"/>
  <rect x="90" y="136" width="560" height="224" rx="18" fill="#FABD0F" opacity="0.05"/>
  <rect x="90" y="136" width="560" height="224" rx="18" fill="none" stroke="#FABD0F" stroke-width="1.5" opacity="0.4"/>
  <text x="110" y="174" font-size="24" fill="#FABD0F" opacity="0.75" font-weight="600">Adaptable</text>
  <rect x="520" y="136" width="670" height="224" rx="18" fill="#9aa1ad" opacity="0.05"/>
  <rect x="520" y="136" width="670" height="224" rx="18" fill="none" stroke="#9aa1ad" stroke-width="1.5" opacity="0.4"/>
  <text x="1170" y="174" font-size="24" fill="#e8eaee" opacity="0.75" font-weight="600" text-anchor="end">Rigid</text>
  <line x1="90" y1="428" x2="1150" y2="428" stroke="#9aa1ad" stroke-width="2" marker-end="url(#arrowGrey)"/>
  <text x="620" y="464" font-size="22" fill="#9aa1ad" text-anchor="middle">the window fills</text>
  <text x="1190" y="464" font-size="20" fill="#9aa1ad" text-anchor="end" font-family="ui-monospace, 'SF Mono', Menlo, monospace">capacity</text>

    <line x1="124" y1="320" x2="293" y2="201" stroke="#8fb0dc" stroke-width="1.2" opacity="0.22"/>
    <line x1="180" y1="318" x2="409" y2="260" stroke="#8fb0dc" stroke-width="1.2" opacity="0.22"/>
    <line x1="292" y1="314" x2="525" y2="319" stroke="#8fb0dc" stroke-width="1.2" opacity="0.22"/>
    <line x1="348" y1="312" x2="703" y2="200" stroke="#8fb0dc" stroke-width="1.2" opacity="0.22"/>
    <line x1="465" y1="258" x2="819" y2="259" stroke="#8fb0dc" stroke-width="1.2" opacity="0.22"/>
    <line x1="530" y1="256" x2="870" y2="320" stroke="#8fb0dc" stroke-width="1.2" opacity="0.22"/>
    <line x1="638" y1="202" x2="935" y2="318" stroke="#8fb0dc" stroke-width="1.2" opacity="0.22"/>
    <line x1="698" y1="263" x2="991" y2="316" stroke="#8fb0dc" stroke-width="1.2" opacity="0.22"/>
    <line x1="236" y1="316" x2="581" y2="317" stroke="#8fb0dc" stroke-width="1.2" opacity="0.22"/>
    <line x1="758" y1="311" x2="1052" y2="264" stroke="#8fb0dc" stroke-width="1.2" opacity="0.22"/>
    <line x1="1047" y1="314" x2="116" y2="194" stroke="#9aa1ad" stroke-width="1.1" opacity="0.32"/>
    <line x1="1047" y1="314" x2="181" y2="205" stroke="#9aa1ad" stroke-width="1.1" opacity="0.32"/>
    <line x1="1047" y1="314" x2="237" y2="203" stroke="#9aa1ad" stroke-width="1.1" opacity="0.32"/>
    <line x1="1047" y1="314" x2="293" y2="201" stroke="#9aa1ad" stroke-width="1.1" opacity="0.32"/>
    <line x1="1047" y1="314" x2="349" y2="199" stroke="#9aa1ad" stroke-width="1.1" opacity="0.32"/>
    <line x1="1047" y1="314" x2="414" y2="197" stroke="#9aa1ad" stroke-width="1.1" opacity="0.32"/>
    <line x1="1047" y1="314" x2="470" y2="195" stroke="#9aa1ad" stroke-width="1.1" opacity="0.32"/>
    <line x1="1047" y1="314" x2="526" y2="206" stroke="#9aa1ad" stroke-width="1.1" opacity="0.32"/>
    <line x1="1047" y1="314" x2="582" y2="204" stroke="#9aa1ad" stroke-width="1.1" opacity="0.32"/>
    <line x1="1047" y1="314" x2="638" y2="202" stroke="#9aa1ad" stroke-width="1.1" opacity="0.32"/>
    <line x1="1047" y1="314" x2="703" y2="200" stroke="#9aa1ad" stroke-width="1.1" opacity="0.32"/>
    <line x1="1047" y1="314" x2="759" y2="198" stroke="#9aa1ad" stroke-width="1.1" opacity="0.32"/>
    <line x1="1047" y1="314" x2="815" y2="196" stroke="#9aa1ad" stroke-width="1.1" opacity="0.32"/>
    <line x1="1047" y1="314" x2="871" y2="194" stroke="#9aa1ad" stroke-width="1.1" opacity="0.32"/>
    <line x1="1047" y1="314" x2="936" y2="205" stroke="#9aa1ad" stroke-width="1.1" opacity="0.32"/>
    <line x1="1047" y1="314" x2="992" y2="203" stroke="#9aa1ad" stroke-width="1.1" opacity="0.32"/>
    <line x1="1047" y1="314" x2="1048" y2="201" stroke="#9aa1ad" stroke-width="1.1" opacity="0.32"/>
    <circle cx="116" cy="194" r="8" fill="#002452" stroke="#FABD0F" stroke-width="2" opacity="0.85"/>
    <circle cx="120" cy="257" r="8" fill="#002452" stroke="#FABD0F" stroke-width="2" opacity="0.85"/>
    <circle cx="124" cy="320" r="8" fill="#002452" stroke="#FABD0F" stroke-width="2" opacity="0.85"/>
    <circle cx="181" cy="205" r="8" fill="#002452" stroke="#FABD0F" stroke-width="2" opacity="0.85"/>
    <circle cx="176" cy="255" r="8" fill="#002452" stroke="#FABD0F" stroke-width="2" opacity="0.85"/>
    <circle cx="180" cy="318" r="8" fill="#002452" stroke="#FABD0F" stroke-width="2" opacity="0.85"/>
    <circle cx="237" cy="203" r="8" fill="#002452" stroke="#FABD0F" stroke-width="2" opacity="0.85"/>
    <circle cx="232" cy="253" r="8" fill="#002452" stroke="#FABD0F" stroke-width="2" opacity="0.85"/>
    <circle cx="236" cy="316" r="8" fill="#002452" stroke="#FABD0F" stroke-width="2" opacity="0.85"/>
    <circle cx="293" cy="201" r="8" fill="#002452" stroke="#FABD0F" stroke-width="2" opacity="0.85"/>
    <circle cx="297" cy="264" r="8" fill="#002452" stroke="#FABD0F" stroke-width="2" opacity="0.85"/>
    <circle cx="292" cy="314" r="8" fill="#002452" stroke="#FABD0F" stroke-width="2" opacity="0.85"/>
    <circle cx="349" cy="199" r="8" fill="#002452" stroke="#FABD0F" stroke-width="2" opacity="0.85"/>
    <circle cx="353" cy="262" r="8" fill="#002452" stroke="#FABD0F" stroke-width="2" opacity="0.85"/>
    <circle cx="348" cy="312" r="8" fill="#002452" stroke="#FABD0F" stroke-width="2" opacity="0.85"/>
    <circle cx="414" cy="197" r="8" fill="#002452" stroke="#FABD0F" stroke-width="2" opacity="0.85"/>
    <circle cx="409" cy="260" r="8" fill="#002452" stroke="#FABD0F" stroke-width="2" opacity="0.85"/>
    <circle cx="413" cy="310" r="8" fill="#002452" stroke="#FABD0F" stroke-width="2" opacity="0.85"/>
    <circle cx="470" cy="195" r="8" fill="#002452" stroke="#FABD0F" stroke-width="2" opacity="0.85"/>
    <circle cx="465" cy="258" r="8" fill="#002452" stroke="#FABD0F" stroke-width="2" opacity="0.85"/>
    <circle cx="469" cy="321" r="8" fill="#002452" stroke="#FABD0F" stroke-width="2" opacity="0.85"/>
    <circle cx="526" cy="206" r="8" fill="#002452" stroke="#8fb0dc" stroke-width="2" opacity="0.85"/>
    <circle cx="530" cy="256" r="8" fill="#002452" stroke="#8fb0dc" stroke-width="2" opacity="0.85"/>
    <circle cx="525" cy="319" r="8" fill="#002452" stroke="#8fb0dc" stroke-width="2" opacity="0.85"/>
    <circle cx="582" cy="204" r="8" fill="#002452" stroke="#8fb0dc" stroke-width="2" opacity="0.85"/>
    <circle cx="586" cy="254" r="8" fill="#002452" stroke="#8fb0dc" stroke-width="2" opacity="0.85"/>
    <circle cx="581" cy="317" r="8" fill="#002452" stroke="#8fb0dc" stroke-width="2" opacity="0.85"/>
    <circle cx="638" cy="202" r="8" fill="#002452" stroke="#8fb0dc" stroke-width="2" opacity="0.85"/>
    <circle cx="642" cy="252" r="8" fill="#002452" stroke="#8fb0dc" stroke-width="2" opacity="0.85"/>
    <circle cx="646" cy="315" r="8" fill="#002452" stroke="#8fb0dc" stroke-width="2" opacity="0.85"/>
    <circle cx="703" cy="200" r="8" fill="#002452" stroke="#8fb0dc" stroke-width="2" opacity="0.85"/>
    <circle cx="698" cy="263" r="8" fill="#002452" stroke="#8fb0dc" stroke-width="2" opacity="0.85"/>
    <circle cx="702" cy="313" r="8" fill="#002452" stroke="#8fb0dc" stroke-width="2" opacity="0.85"/>
    <circle cx="759" cy="198" r="8" fill="#002452" stroke="#8fb0dc" stroke-width="2" opacity="0.85"/>
    <circle cx="754" cy="261" r="8" fill="#002452" stroke="#8fb0dc" stroke-width="2" opacity="0.85"/>
    <circle cx="758" cy="311" r="8" fill="#002452" stroke="#8fb0dc" stroke-width="2" opacity="0.85"/>
    <circle cx="815" cy="196" r="8" fill="#002452" stroke="#8fb0dc" stroke-width="2" opacity="0.85"/>
    <circle cx="819" cy="259" r="8" fill="#002452" stroke="#8fb0dc" stroke-width="2" opacity="0.85"/>
    <circle cx="814" cy="322" r="8" fill="#002452" stroke="#8fb0dc" stroke-width="2" opacity="0.85"/>
    <circle cx="871" cy="194" r="8" fill="#002452" stroke="#8fb0dc" stroke-width="2" opacity="0.85"/>
    <circle cx="875" cy="257" r="8" fill="#002452" stroke="#8fb0dc" stroke-width="2" opacity="0.85"/>
    <circle cx="870" cy="320" r="8" fill="#002452" stroke="#8fb0dc" stroke-width="2" opacity="0.85"/>
    <circle cx="936" cy="205" r="8" fill="#002452" stroke="#8fb0dc" stroke-width="2" opacity="0.85"/>
    <circle cx="931" cy="255" r="8" fill="#002452" stroke="#8fb0dc" stroke-width="2" opacity="0.85"/>
    <circle cx="935" cy="318" r="8" fill="#002452" stroke="#8fb0dc" stroke-width="2" opacity="0.85"/>
    <circle cx="992" cy="203" r="8" fill="#002452" stroke="#8fb0dc" stroke-width="2" opacity="0.85"/>
    <circle cx="987" cy="253" r="8" fill="#002452" stroke="#8fb0dc" stroke-width="2" opacity="0.85"/>
    <circle cx="991" cy="316" r="8" fill="#002452" stroke="#8fb0dc" stroke-width="2" opacity="0.85"/>
    <circle cx="1048" cy="201" r="8" fill="#002452" stroke="#8fb0dc" stroke-width="2" opacity="0.85"/>
    <circle cx="1052" cy="264" r="8" fill="#002452" stroke="#8fb0dc" stroke-width="2" opacity="0.85"/>
    <circle cx="1047" cy="314" r="10" fill="#FABD0F"/>
    <text x="1047" y="354" font-size="20" fill="#FABD0F" text-anchor="middle">next token</text>
  </g>
</svg>
